<mxfile host="app.diagrams.net" agent="Mozilla/5.0 (Windows NT 10.0; Win64; x64) AppleWebKit/537.36 (KHTML, like Gecko) Chrome/140.0.0.0 Safari/537.36 Edg/140.0.0.0" version="28.2.4">
  <diagram name="第 1 页" id="n3iv9__9NuRzk4hq7aZW">
    <mxGraphModel dx="2108" dy="2321" grid="1" gridSize="10" guides="1" tooltips="1" connect="1" arrows="1" fold="1" page="1" pageScale="1" pageWidth="1169" pageHeight="1654" math="0" shadow="0">
      <root>
        <mxCell id="0" />
        <mxCell id="1" parent="0" />
        <mxCell id="ILotqcXSoM9TbWhTolwW-4" style="edgeStyle=orthogonalEdgeStyle;rounded=0;orthogonalLoop=1;jettySize=auto;html=1;dashed=1;dashPattern=8 8;" edge="1" parent="1" source="ILotqcXSoM9TbWhTolwW-1">
          <mxGeometry relative="1" as="geometry">
            <mxPoint x="510" y="110" as="targetPoint" />
          </mxGeometry>
        </mxCell>
        <mxCell id="ILotqcXSoM9TbWhTolwW-5" value="&lt;font style=&quot;font-size: 18px;&quot;&gt;http&lt;/font&gt;" style="edgeLabel;html=1;align=center;verticalAlign=middle;resizable=0;points=[];" vertex="1" connectable="0" parent="ILotqcXSoM9TbWhTolwW-4">
          <mxGeometry x="-0.1367" y="-2" relative="1" as="geometry">
            <mxPoint as="offset" />
          </mxGeometry>
        </mxCell>
        <mxCell id="ILotqcXSoM9TbWhTolwW-37" style="edgeStyle=orthogonalEdgeStyle;rounded=0;orthogonalLoop=1;jettySize=auto;html=1;exitX=0.5;exitY=1;exitDx=0;exitDy=0;entryX=0.5;entryY=0;entryDx=0;entryDy=0;" edge="1" parent="1" source="ILotqcXSoM9TbWhTolwW-1" target="ILotqcXSoM9TbWhTolwW-8">
          <mxGeometry relative="1" as="geometry" />
        </mxCell>
        <mxCell id="ILotqcXSoM9TbWhTolwW-1" value="创建订单" style="rounded=0;whiteSpace=wrap;html=1;" vertex="1" parent="1">
          <mxGeometry x="60" y="80" width="120" height="60" as="geometry" />
        </mxCell>
        <mxCell id="ILotqcXSoM9TbWhTolwW-7" style="edgeStyle=orthogonalEdgeStyle;rounded=0;orthogonalLoop=1;jettySize=auto;html=1;entryX=1;entryY=0.5;entryDx=0;entryDy=0;dashed=1;dashPattern=8 8;" edge="1" parent="1" source="ILotqcXSoM9TbWhTolwW-6" target="ILotqcXSoM9TbWhTolwW-8">
          <mxGeometry relative="1" as="geometry">
            <mxPoint x="570" y="230" as="targetPoint" />
            <Array as="points">
              <mxPoint x="570" y="230" />
            </Array>
          </mxGeometry>
        </mxCell>
        <mxCell id="ILotqcXSoM9TbWhTolwW-10" value="&lt;font style=&quot;font-size: 13px;&quot;&gt;返回 userId、productId、productName、orderId、price&lt;/font&gt;" style="edgeLabel;html=1;align=center;verticalAlign=middle;resizable=0;points=[];" vertex="1" connectable="0" parent="ILotqcXSoM9TbWhTolwW-7">
          <mxGeometry x="0.2751" y="-1" relative="1" as="geometry">
            <mxPoint x="24" as="offset" />
          </mxGeometry>
        </mxCell>
        <mxCell id="ILotqcXSoM9TbWhTolwW-6" value="锁单" style="rounded=0;whiteSpace=wrap;html=1;" vertex="1" parent="1">
          <mxGeometry x="510" y="80" width="120" height="60" as="geometry" />
        </mxCell>
        <mxCell id="ILotqcXSoM9TbWhTolwW-13" style="edgeStyle=orthogonalEdgeStyle;rounded=0;orthogonalLoop=1;jettySize=auto;html=1;exitX=0;exitY=0.5;exitDx=0;exitDy=0;" edge="1" parent="1" source="ILotqcXSoM9TbWhTolwW-8">
          <mxGeometry relative="1" as="geometry">
            <mxPoint x="-110" y="230" as="targetPoint" />
          </mxGeometry>
        </mxCell>
        <mxCell id="ILotqcXSoM9TbWhTolwW-14" value="&lt;font style=&quot;font-size: 14px;&quot;&gt;生成 form 支付界面&lt;/font&gt;" style="edgeLabel;html=1;align=center;verticalAlign=middle;resizable=0;points=[];" vertex="1" connectable="0" parent="ILotqcXSoM9TbWhTolwW-13">
          <mxGeometry x="-0.0286" y="-4" relative="1" as="geometry">
            <mxPoint as="offset" />
          </mxGeometry>
        </mxCell>
        <mxCell id="ILotqcXSoM9TbWhTolwW-8" value="调用阿里支付" style="rounded=0;whiteSpace=wrap;html=1;" vertex="1" parent="1">
          <mxGeometry x="60" y="200" width="120" height="60" as="geometry" />
        </mxCell>
        <mxCell id="ILotqcXSoM9TbWhTolwW-12" style="edgeStyle=orthogonalEdgeStyle;rounded=0;orthogonalLoop=1;jettySize=auto;html=1;exitX=0.5;exitY=1;exitDx=0;exitDy=0;entryX=0.5;entryY=0;entryDx=0;entryDy=0;" edge="1" parent="1" source="ILotqcXSoM9TbWhTolwW-11" target="ILotqcXSoM9TbWhTolwW-1">
          <mxGeometry relative="1" as="geometry" />
        </mxCell>
        <mxCell id="ILotqcXSoM9TbWhTolwW-18" style="edgeStyle=orthogonalEdgeStyle;rounded=0;orthogonalLoop=1;jettySize=auto;html=1;exitX=0;exitY=0.75;exitDx=0;exitDy=0;" edge="1" parent="1" source="ILotqcXSoM9TbWhTolwW-11" target="ILotqcXSoM9TbWhTolwW-15">
          <mxGeometry relative="1" as="geometry" />
        </mxCell>
        <mxCell id="ILotqcXSoM9TbWhTolwW-11" value="" style="shape=actor;whiteSpace=wrap;html=1;" vertex="1" parent="1">
          <mxGeometry x="100" y="-30" width="40" height="60" as="geometry" />
        </mxCell>
        <mxCell id="ILotqcXSoM9TbWhTolwW-33" style="edgeStyle=orthogonalEdgeStyle;rounded=0;orthogonalLoop=1;jettySize=auto;html=1;exitX=0.75;exitY=1;exitDx=0;exitDy=0;entryX=0;entryY=0.25;entryDx=0;entryDy=0;dashed=1;dashPattern=8 8;" edge="1" parent="1" source="ILotqcXSoM9TbWhTolwW-15" target="ILotqcXSoM9TbWhTolwW-19">
          <mxGeometry relative="1" as="geometry" />
        </mxCell>
        <mxCell id="ILotqcXSoM9TbWhTolwW-34" value="&lt;font style=&quot;font-size: 15px;&quot;&gt;回调&lt;/font&gt;" style="edgeLabel;html=1;align=center;verticalAlign=middle;resizable=0;points=[];" vertex="1" connectable="0" parent="ILotqcXSoM9TbWhTolwW-33">
          <mxGeometry x="0.1963" y="-1" relative="1" as="geometry">
            <mxPoint as="offset" />
          </mxGeometry>
        </mxCell>
        <mxCell id="ILotqcXSoM9TbWhTolwW-15" value="&lt;span style=&quot;font-size: 11px; text-wrap-mode: nowrap; background-color: rgb(255, 255, 255);&quot;&gt;用户支付&lt;/span&gt;" style="rounded=0;whiteSpace=wrap;html=1;" vertex="1" parent="1">
          <mxGeometry x="-230" y="200" width="120" height="60" as="geometry" />
        </mxCell>
        <mxCell id="ILotqcXSoM9TbWhTolwW-23" style="edgeStyle=orthogonalEdgeStyle;rounded=0;orthogonalLoop=1;jettySize=auto;html=1;dashed=1;dashPattern=8 8;entryX=0;entryY=0.5;entryDx=0;entryDy=0;" edge="1" parent="1" source="ILotqcXSoM9TbWhTolwW-19" target="ILotqcXSoM9TbWhTolwW-24">
          <mxGeometry relative="1" as="geometry">
            <mxPoint x="520" y="380" as="targetPoint" />
          </mxGeometry>
        </mxCell>
        <mxCell id="ILotqcXSoM9TbWhTolwW-25" value="Text" style="edgeLabel;html=1;align=center;verticalAlign=middle;resizable=0;points=[];" vertex="1" connectable="0" parent="ILotqcXSoM9TbWhTolwW-23">
          <mxGeometry x="0.0361" relative="1" as="geometry">
            <mxPoint as="offset" />
          </mxGeometry>
        </mxCell>
        <mxCell id="ILotqcXSoM9TbWhTolwW-26" value="&lt;font style=&quot;font-size: 15px;&quot;&gt;http、结算&lt;/font&gt;" style="edgeLabel;html=1;align=center;verticalAlign=middle;resizable=0;points=[];" vertex="1" connectable="0" parent="ILotqcXSoM9TbWhTolwW-23">
          <mxGeometry x="0.0361" y="-2" relative="1" as="geometry">
            <mxPoint as="offset" />
          </mxGeometry>
        </mxCell>
        <mxCell id="ILotqcXSoM9TbWhTolwW-35" style="edgeStyle=orthogonalEdgeStyle;rounded=0;orthogonalLoop=1;jettySize=auto;html=1;exitX=0;exitY=0.75;exitDx=0;exitDy=0;entryX=0.25;entryY=1;entryDx=0;entryDy=0;" edge="1" parent="1" source="ILotqcXSoM9TbWhTolwW-19" target="ILotqcXSoM9TbWhTolwW-15">
          <mxGeometry relative="1" as="geometry" />
        </mxCell>
        <mxCell id="ILotqcXSoM9TbWhTolwW-36" value="&lt;font style=&quot;font-size: 14px;&quot;&gt;支付成功，前端页面会下显示&lt;/font&gt;" style="edgeLabel;html=1;align=center;verticalAlign=middle;resizable=0;points=[];" vertex="1" connectable="0" parent="ILotqcXSoM9TbWhTolwW-35">
          <mxGeometry x="-0.2984" y="-1" relative="1" as="geometry">
            <mxPoint as="offset" />
          </mxGeometry>
        </mxCell>
        <mxCell id="ILotqcXSoM9TbWhTolwW-19" value="处理用户支付结果" style="rounded=0;whiteSpace=wrap;html=1;" vertex="1" parent="1">
          <mxGeometry x="60" y="350" width="120" height="60" as="geometry" />
        </mxCell>
        <mxCell id="ILotqcXSoM9TbWhTolwW-28" style="edgeStyle=orthogonalEdgeStyle;rounded=0;orthogonalLoop=1;jettySize=auto;html=1;exitX=0.5;exitY=1;exitDx=0;exitDy=0;entryX=0.5;entryY=0;entryDx=0;entryDy=0;" edge="1" parent="1" source="ILotqcXSoM9TbWhTolwW-24" target="ILotqcXSoM9TbWhTolwW-27">
          <mxGeometry relative="1" as="geometry" />
        </mxCell>
        <mxCell id="ILotqcXSoM9TbWhTolwW-24" value="更新库表" style="rounded=0;whiteSpace=wrap;html=1;" vertex="1" parent="1">
          <mxGeometry x="510" y="350" width="120" height="60" as="geometry" />
        </mxCell>
        <mxCell id="ILotqcXSoM9TbWhTolwW-29" style="edgeStyle=orthogonalEdgeStyle;rounded=0;orthogonalLoop=1;jettySize=auto;html=1;exitX=0;exitY=0.5;exitDx=0;exitDy=0;dashed=1;dashPattern=8 8;entryX=1;entryY=0.5;entryDx=0;entryDy=0;" edge="1" parent="1" source="ILotqcXSoM9TbWhTolwW-27" target="ILotqcXSoM9TbWhTolwW-30">
          <mxGeometry relative="1" as="geometry">
            <mxPoint x="190" y="490" as="targetPoint" />
          </mxGeometry>
        </mxCell>
        <mxCell id="ILotqcXSoM9TbWhTolwW-31" value="&lt;font style=&quot;font-size: 13px;&quot;&gt;http、组队完成、可以进行发货等处理&lt;/font&gt;" style="edgeLabel;html=1;align=center;verticalAlign=middle;resizable=0;points=[];" vertex="1" connectable="0" parent="ILotqcXSoM9TbWhTolwW-29">
          <mxGeometry x="-0.0202" relative="1" as="geometry">
            <mxPoint as="offset" />
          </mxGeometry>
        </mxCell>
        <mxCell id="ILotqcXSoM9TbWhTolwW-27" value="如果拼团结束" style="rhombus;whiteSpace=wrap;html=1;" vertex="1" parent="1">
          <mxGeometry x="530" y="450" width="80" height="80" as="geometry" />
        </mxCell>
        <mxCell id="ILotqcXSoM9TbWhTolwW-30" value="更新库表、发货" style="rounded=0;whiteSpace=wrap;html=1;" vertex="1" parent="1">
          <mxGeometry x="60" y="460" width="120" height="60" as="geometry" />
        </mxCell>
      </root>
    </mxGraphModel>
  </diagram>
</mxfile>
